<svg viewBox="0 0 471 411" width="471" height="411" fill="none" xmlns="http://www.w3.org/2000/svg"><g clip-path="url(#a)"><path d="M324.55 0c21.36 3.82 40.74 11.73 56.471 26.91 7.949 7.68 14.909 16.38 22.649 24.29 17.26 17.66 38.29 25.41 62.94 23.2 1.26-.11 2.55-.01 3.93-.01-8.4 19.18-16.71 38.26-25.12 57.3a5743.7 5743.7 0 0 1-23.24 51.93c-.45 1-1.92 2.06-3.01 2.18-25.12 2.84-46.42-6.07-65.19-21.94-7.269-6.15-13.85-13.11-20.87-19.57-1.54-1.42-3.6-2.29-5.589-3.51l.009.01c-3.36 18.68-6.56 36.48-9.77 54.34 6.4.97 13.81-2.2 17.11 4.32 3.78-1.44 7.22-3.71 10.8-3.93 8.85-.56 17.76-.1 26.65-.22 4.63-.06 8.01 1.7 9.47 4.65 7.45-1.88 14.53-4.72 21.79-5.29 14.56-1.15 29.48-2.39 42.33 7.08 10.36 7.64 14.51 18.13 12.73 30.75-2.34 16.57-5.53 33.04-7.48 49.65-2.42 20.61-19.11 32.83-35.85 35.31-9.87 1.47-19.99 1.33-30.01 1.91.34 14.9-2.19 25.61-7.82 32.64 4.65 7.15 3.47 14.9 2.27 22.68-2.22 14.47-8.49 26.25-22.71 31.91-5.4 2.15-11.43 3.54-17.22 3.71-16.56.49-33.14.18-49.71.16-.98 0-2.39.18-2.87-.36-4.59-5.21-9.51-1.23-14.25-.6-16.23 2.13-32.4 3.25-48.4-1.53-.59-.18-1.28-.26-1.87-.13-3.85.84-7.68 2.459-11.53 2.51-19.069.27-38.14.12-57.21.12-.899 0-2.14.35-2.64-.11-5.78-5.27-11.25-.36-16.77.48-14 2.12-27.9 3.01-40.97-3.81-10.53-5.5-15.62-15.01-15.03-26.38.7-13.569 2.85-27.09 4.9-40.54 1.12-7.33 3.35-14.5 5.11-21.9H72.35c-19.67 0-39.35-.36-59 .16-8.84.23-15.02-4.82-12.91-15.82 2.99-15.58 5.22-31.31 7.82-46.97 2.36-14.21 4.59-28.45 7.25-42.61 2.05-10.9 10.71-17.66 21.7-17.65 11.38 0 22.76.09 34.14-.02 14.3-.14 27 3.04 35.17 16.78.38-1.02.57-1.53.76-2.03 5.02-13.07 8.64-15.49 22.63-15.26 5.69.09 11.43-.38 17.06.25 5.47.61 6.63-1.96 6.93-6.52.26-3.93 1.1-7.83 1.78-11.73.68-3.88 1.5-7.73 2.25-11.59-12.01-2.4-14.09-6.66-11.81-26.3-4.43 2.98-8.42 4.88-11.4 7.81-13.74 13.49-27.84 26.23-45.9 34.06-12.55 5.45-25.49 5.11-38.56 4.97-.53 0-1.28-.75-1.54-1.32C33 149.34 17.33 114.25 1.64 79.16.93 77.58.16 76.03 0 75.68c11.31-1.37 23.15-1.62 34.33-4.45 15.98-4.05 28.84-14.15 38.9-26.94C91.18 21.47 113.99 6.89 142.3.89c1.12-.24 3.37.95 3.83 2.01 12.87 29.71 25.59 59.48 38.3 89.25 4.06 9.5 7.96 19.07 12.13 28.53.44 1 2.13 2.069 3.25 2.08 23.359.11 46.72.15 70.08-.09 1.55-.02 3.82-1.98 4.5-3.58 12.26-28.75 24.33-57.58 36.44-86.4 4.53-10.79 9.06-21.58 13.72-32.69ZM159.048 311.64c-7.31-5.74-16.47-5.029-25.24-4.869-13.97.25-25.47 8.159-28.64 21.769-3.54 15.18-5.84 30.67-7.96 46.13-1.07 7.77 1.96 14.74 9.83 17.64 14.53 5.34 29.12 5.02 42.52-3.21 8.25-5.07 9.68-14.32 11.11-23.76h-20.7c-.5 1.34-1.5 4.34-2.5 7.34-.54 4.5-6.33 6.2-12.24 5.17-4.93-.86-4.73-4.49-4.29-8.01.619-4.94 1.48-9.84 2.41-14.73 1.65-8.69 3.029-17.46 5.299-25.98 1.47-5.51 6.701-4.78 11.031-4.26 4.01.48 4.149 3.77 3.969 6.87-.14 2.37-.549 4.72-.889 7.44h21.71c.5-2.5 1.59-8.001 1.12-16.61-.38-3.89-3.37-8.44-6.54-10.93Zm121.42-3.57-2.63 12.76c-3.02 16.45-5.941 32.92-9.15 49.33-1.281 6.58-6.18 8.96-14.18 7.35-6.08-1.23-4.59-6.15-4.04-9.87 1.6-10.83 3.71-21.58 5.62-32.36 1.58-8.97 3.18-17.93 4.82-27.19l-23.94.09c-3.47 20.11-7.221 42.2-10.401 62.36-2.36 14.92 2.001 21.1 16.951 23.81 5.53 1.01 11.34 1.32 16.94.87 16.56-1.32 27.48-5.82 31.54-24.949 1.36-6.42 2.44-12.891 3.59-19.351 2.5-14.1 4.96-28.19 7.54-42.85h-22.66Zm-99.989.17c-4.579 27.47-9.261 55.611-13.691 83.111l-.32 2.829 38.48-.04h12.26l2.939-18.01h-27.799c3.99-22.84 7.9-45.24 11.85-67.89h-23.719Zm144.969-.17c-9.43-.08-9.431-.02-11.381 9.01-.25 1.16-.569 2.32-.779 3.49-3.12 17.84-6.23 35.68-9.33 53.52-1.13 6.53-2.22 13.07-3.25 19.19l-.01.01c14.83 0 29.36.53 43.84-.17 10.81-.52 18.92-6.3 21.96-17.12 3.589-12.778 3.875-23.571-8.64-25.247 3.243-1.629 6.708-2.704 9.169-4.903 6.56-5.88 6.681-14.14 6.721-22.13.04-8.44-5.74-14.73-14.2-15.09-11.36-.49-22.73-.46-34.1-.56Zm4.35 50.54c4.74.2 9.49.41 14.21.81.7.06 1.52.97 1.94 1.69 2.93 5.09-1.64 14.89-7.4 15.45-4.1.4-8.28.08-12.94.08 1.1-5.9 2.13-11.52 3.23-17.13.07-.36.64-.91.96-.9Zm6.82-33.631c2.08-.099 4.19-.139 6.26.051 3.44.32 7.269.25 7.47 5.28.27 6.54-2.7 12.09-7.33 12.66-3.59.44-7.271.09-11.5.09v-.01c1.1-5.91 2.11-11.521 3.27-17.111.091-.439 1.18-.93 1.83-.96ZM221.5 208.92c-15.11-.96-28.5 2.59-35.53 17.49-2.96 6.26-4.41 13.38-5.69 20.27-2.07 11.14-3.81 22.37-4.98 33.64-1.08 10.37 4.87 17.86 15.3 19.29 7.46 1.02 15.16 1.62 22.61.92 9.67-.9 18.58-4.61 22.86-14.32 2.46-5.55 3.8-11.6 5.86-18.13h-23.02c-.24 2.42-2.42 9.25-3.49 11.46-1.8 3.71-7.17 5.34-12.09 2.981-1.78-.85-3.61-4.371-3.3-6.351 2.17-14.07 4.76-28.07 7.49-42.04 1.18-6.06 8.719-9.14 14.129-5.99.99.58 1.831 2.18 1.931 3.37.259 3.229-.664 10.034-.67 10.08h22.5c0-.018.015-1.288.819-6.45 1.97-12.67-.739-19.75-10.989-23.74-4.26-1.66-9.11-2.19-13.74-2.48Zm216.74 3.02c-7.54-4.07-15.76-4.12-23.91-3.82-13.35.49-24.9 5.06-30.51 18.12-2.97 6.91-4.6 14.54-5.89 22.01-1.98 11.45-3.58 23-4.5 34.58-.6 7.5 3.56 13.71 10.83 15.3 8.32 1.83 17.09 2.85 25.57 2.38 13.92-.77 24.57-7.66 28.73-21.6 2.61-8.72 3.81-17.86 5.75-27.36-10.45 0-20.391-.019-30.331.051-.469.01-1.239.739-1.349 1.239-.97 4.42-1.82 8.87-2.82 13.85h9.8c-.89 3.83-1.24 7.241-2.48 10.29-2.25 5.53-9.08 7.96-15.89 5.74-5.61-1.83-4.31-6.79-3.69-10.659 2.01-12.57 4.409-25.091 6.849-37.591 1.311-6.68 6.351-9.31 14.311-7.83 4.02.74 5.34 4.24 4.11 10.84-.11.58-.13 1.17-.25 2.26l-.03.01c7.04 0 13.71.11 20.37-.13 1.03-.04 2.74-1.66 2.87-2.7.5-4.04.88-8.17.57-12.21-.43-5.52-2.98-10-8.11-12.77Zm-275.7-2.049c-10.17 0-19.94-.061-29.7.109L94 299.65l22.91-.25 7.56-15.28h18.44l1.41 15.53 24.8-.25c-2.2-29.949-4.38-59.62-6.58-89.509Zm100.37-.111c-.27 1.171-1.94 10.049-2.14 11.23-3.09 17.73-6.16 35.45-9.25 53.18-1.46 8.38-2.93 16.76-4.45 25.45 7.785 0 22.236-.08 22.329-.08h1.511c1-4.87 2.16-11.49 3.01-16.38 2.7-15.48 5.38-30.97 8.07-46.46 1.52-8.8 3.039-17.6 4.659-26.93v-.01H262.91Zm87.5.04c-2.63 15.89-5.93 35.04-8.87 51.97-4.33-17.14-8.91-35.83-13.13-51.86h-27.5s-4.73 28.12-7 40.95c-2.849 16.067-5.639 32.143-8.549 48.75l24.049.01 3.12-15.69 6.23-36.37 10.65 52.06 25.02-.14h2.98c.012-.073 6.203-37.037 9.17-54.09 2.04-11.73 4.14-23.46 6.28-35.59h-22.45Zm-313 .42L24 299.5h23.22c1.69-9.68 4.38-22.35 6.19-31.82h7.5l5.5 31.82 24.53.061c-3.32-12.44-6.52-24.391-9.69-36.25 10.54-4.65 13.69-7.941 16.11-17.441 1.07-4.23 1.79-8.58 2.28-12.92 1.68-14.86-3.01-21.61-17.74-22.71H37.41Zm105.62 22.58v34.39H128.7c4.68-11.76 9.19-23.12 13.71-34.48l.62.09Zm-83.27-4.83c4.11.22 8.68-.46 12.12 1.18 1.94.93 3.11 5.87 2.75 8.77-1.38 10.99-6.03 13.84-19.04 12.121 1.18-7.157 2.34-14.164 3.52-21.161.06-.34.44-.92.65-.91Zm186.69-93.03-4.61 25.5h-14.319c1.468-8.474 2.877-16.668 4.406-25.5h.003v-.02l-.003.02H214.45l-11.47 65.93h17.48l5.49-26.21h13.5l-4.85 26.53h17.35l12.03-66.28-17.53.03Zm64.98.04c-11.97-.06-23.95-.14-35.92-.03-1.159 6.512-13.51 66.066-13.54 66.21 0 0 25.64.06 37.98 0l3.6-14.61h-21.46l2.86-12.09h18.1c.81-4.46 1.62-8.94 2.53-13.93h-17.63l3-10.76h18.93c.84-5.08 1.62-9.75 2.37-14.29l-.02-.01c-.47-.29-.63-.49-.8-.49Zm-105-.03c-15.15 0-30.84-.01-45.48.05L158 149.97h14.77c-3.04 17.12-6.02 33.84-9.08 51.06l-.02.01h17.04c.14-.43.29-.79.36-1.17 2.35-13.03 6.05-36.87 8.38-49.9h14.5c1.02-4.32 1.58-10.13 2.48-15ZM44.87 157.73c2.27 5.01 5.25 10.71 7.47 16.7 1.73 4.68 4.19 6.45 9.35 6.08 9.26-.66 18.14-2.31 26.73-6.37-3.46-7.9-6.78-15.47-9.58-21.88l.01-.01-33.98 5.48Zm337.11 16.43v.01c10.23 5.02 20.63 6.73 31.49 6.02.82-.05 2.01-.65 2.32-1.32 3.45-7.36 6.76-14.79 9.61-21.08-10.979-1.81-21.98-3.63-33.629-5.55-2.87 6.42-6.261 14.02-9.791 21.92Zm-256.875-60.836c-7.088 6.429-13.997 12.668-20.835 18.987-.51.47-.85 1.71-.6 2.299 3.31 7.75 6.75 15.451 10.16 23.161l2.16 1.5c6.28-7.07 12.57-14.131 18.81-21.241.37-.43.65-1.35.45-1.81-3.338-7.666-6.757-15.29-10.145-22.896Zm220.195-.013c-3.25 7.349-6.54 14.749-9.75 22.179-.29.68-.43 1.94-.04 2.33 6.75 6.78 13.6 13.47 21.05 20.8 4.088-8.947 7.728-16.905 11.377-24.873l.063.064h.01l.005-.013-.037-.026-.028-.032h-.01l-.002.005c-7.546-6.808-15.082-13.616-22.638-20.434Zm22.715 20.487c.941.64 1.883 1.261 2.805 1.912 7.08 5.03 14.16 10.06 21.49 15.28 4.03-9.24 7.64-17.53 11.1-25.48-8.21-5.65-16.16-11.12-24.39-16.78-3.579 8.156-7.287 16.612-11.005 25.068ZM67 124.9h.01c3.67 8.21 7.42 16.59 11.49 25.7 8.29-5.87 16.4-11.62 24.42-17.3-4.18-8.75-7.98-16.73-11.59-24.279C83.27 114.28 75.32 119.47 67 124.9Zm-45-18.55c1.88 4.15 4.78 9.07 6.33 14.38 2.38 8.13 7.32 10.88 15.26 9.31 7.53-1.49 15.07-2.97 23.16-4.56-4.26-9.819-7.87-18.18-10.9-25.169-11.61 2.07-22.68 4.049-33.85 6.039Zm382.23 17.97c.59.42.95.77 1.38.97 9.8 4.62 20.27 4.99 30.82 4.67.66-.02 1.549-.9 1.88-1.6 3.58-7.57 7.07-15.19 10.25-22.06v-.01c-11.21-2-22.2-3.96-33.72-6.01-3.12 7.08-6.85 15.52-10.61 24.04ZM298.89 86.51c-.88-.28-2.979 1.07-3.45 2.13-3.2 7.19-6.12 14.51-9.04 21.57 7.97 2.46 15.8 4.93 23.68 7.23.51.15 1.71-.81 2.04-1.52 3.149-6.788 6.177-13.635 9.745-21.602-7.958-2.76-15.417-5.459-22.975-7.808ZM148.9 93.87c3.91 8.69 7.34 16.32 10.53 23.42 8.49-2.3 16.89-4.58 25.51-6.91-3.36-7.99-6.75-16.04-10.5-24.95-8.609 2.85-16.99 5.62-25.54 8.44Zm-23.795 19.454.005-.004-.01-.009.005.013ZM322.27 93.08c7.92 6.29 15.47 12.29 23.09 18.34 3.59-8.32 7.36-17.08 11.36-26.34-7.6-5.78-15.2-11.55-23.14-17.58-4.16 9.41-7.91 17.88-11.31 25.58ZM137.29 67.53c-7.4 5.71-14.49 11.08-21.42 16.65-.73.59-1.12 2.54-.73 3.45 3.37 7.83 6.95 15.58 10.23 22.8 7.6-5.74 15.22-11.5 23.16-17.5-3.41-7.69-7.08-15.99-11.24-25.4Zm-35-8.2c-7.17 7.56-13.88 14.51-20.4 21.63-.79.87-1.23 2.9-.79 3.94 3.2 7.55 6.67 14.99 10.64 23.74 7-7.39 13.67-14.22 20.01-21.33 1.06-1.18 1.5-3.93.89-5.4-3-7.2-6.45-14.22-10.34-22.58h-.01Zm265.36 1.73c-3.28 7.25-6.89 15.13-10.35 23.09-.25.57.46 1.82 1.05 2.44 6.69 7.09 13.45 14.12 20.55 21.53l.01-.01c4.22-9.09 7.94-17.09 11.99-25.81-7.639-6.98-15.42-14.08-23.25-21.24Zm33.98-2.65c-3.25 7.23-6.64 14.66-9.88 22.16-.32.74-.1 2.32.44 2.71 7.48 5.41 15.05 10.68 22.97 16.24l10.77-24.53c-8.38-5.72-16.34-11.15-24.3-16.58ZM44.54 74.87c2.98 6.54 6.32 13.56 9.37 20.71 1.03 2.41 2.23 2.72 4.22 1.46 7.31-4.64 14.6-9.3 21.87-13.93h-.01c-4.05-8.94-7.69-16.96-11.17-24.62-8.13 5.49-16.1 10.86-24.28 16.38Zm277.325 19.448.005.002v-.01a.04.04 0 0 1-.005.008ZM319.79 34.9c-.64-.15-1.96.46-2.2 1.03-3.29 7.8-6.44 15.65-9.51 23.21 4.52 1.03 8.86 1.64 12.92 3.04 4.06 1.39 7.85 3.57 12 5.51 3.54-8.33 7.14-16.8 11.35-26.7-8.47-2.12-16.5-4.18-24.56-6.09Zm-168.01.63c-9.14-.43-17.04 3.37-25.11 7.33 3.68 8.49 7.24 16.71 10.46 24.13h.01c9.15-2.85 17.63-5.49 25.99-8.1-2.79-6.67-5.83-14.08-9.01-21.42-.37-.85-1.51-1.9-2.34-1.94Zm-36.9-19.41c-6.9 4.63-13.34 8.7-19.45 13.21-1.55 1.13-3.33 4.13-2.84 5.48 3 8.24 6.63 16.25 9.79 23.73v.01c7.91-5.75 15.79-11.47 23.68-17.2-3.56-8.04-7.26-16.38-11.18-25.23Zm229.86 25.07c8.02 5.9 15.72 11.57 23.42 17.23 3.18-7.49 6.6-15.33 9.79-23.26.45-1.1.27-3.34-.49-3.92-7-5.38-14.2-10.52-21.69-15.98-4.05 9.53-7.66 18.01-11.03 25.93Z" fill="#e6e9ef"/></g><defs><clipPath id="a"><path fill="#fff" d="M0 0h471v411H0z"/></clipPath></defs></svg>
